<svg id="Layer_1" data-name="Layer 1" xmlns="http://www.w3.org/2000/svg" xmlns:xlink="http://www.w3.org/1999/xlink" viewBox="0 0 1500 1000"><defs><style>.cls-1{fill:none;}.cls-2{clip-path:url(#clip-path);}.cls-3{fill:#008751;}.cls-4{fill:#fff;}.cls-5{fill:#7c7c7c;}</style><clipPath id="clip-path"><path class="cls-1" d="M1248.5,239.1l-1-.5-3,1.3-.4-.4-.6-1.8-1.3-1.1-1.7-.9-1.6-1.2,1.1-.5v-.7l-.9-.4-2.4-1.8-.6-.6-.2-.8.4-1.3-.2-.8-2.3-1.2-5.3-1.4-17.1-.5-1.3-.3-1.1-.6-.8-1.3v-1l.5-2.6V217l-.6-1.8-.1-6.6-9.3-45.4-19.1-26.8-19-26.8-20.6-.9-2.5.4-.7.7v1.4l-1.2.9-3.4,3.2-.5.7-.5,1.2.5,1.1-.2.7-1.5.2-.8,1.2.2.4,1.2.2-1.5,2-2,.7-2.3.4-2.2,1,.5-1.5-.2-.7-.8-.1-.5.3-.6,1.4-.6-.6-1.4.5-1.6.1-.9-.4.5-1.3-2.3.1-2.2.8-7.4,3.8-2.3.4-2.4-.5-.3,1.4-.8.1-2.3-.9v.7l1.3.5,1,1.2-1.1.9-2.3,2.6.1.9-1.1.2-1.7.7-.2.3.9,2-1.2.1-1.1-1.3-.9,1.8-2.2,2.6-1.3,1.1-1.9.4-1,.5-.6,1.9-.7.5-1.3-.3-2.4-2-.2,1.9-1.2,1h-1.3l-3,2.9-.3,1.4-1,1.6-.6,1.2,1.3.5-.5,1.9-1.1,1.7-2.5.5-.4.3-.7,4.6-.4,1-1.2.6-1.3-.3-1.6-.6-1.9-.3-2.3-.1h0l-2.9-.1-1.4-.4-.8.5-1.2-1.2-.8-.4-.8.1-1.2,1-.7-.1-.5-1.4-.9-.5-4.2-1.5-1.4.3-1.8,1.2-3.9.5-4.9-1.2-1.6-.9-3.9-3-11.5-7.1-9.2-3.8-25.2-6.4-40.5.2-15.1-1.8-8,.7L874,147l-3.5,1.5-15.8,8.9-1.4,1.4-.4.9-.3,2.1-1,1.5-1.7.3-1.6,1.1-2.8,2.7-14.2,16.9,2.2.6,7.9,2.7h0l-7.9-2.7-2.2-.6-1.6,1.5-1.5.9-1.7.1-17.7-2.1-1.5.1-4.4,1.3h-3.1l-24.3-2.9h0l-2.9-.3-21.9-6.5-3-1.8-1.5-1.7-2.4-4-1.6-1.8-3.6-2.8-2-.9-2.3-.5-3,.2-2.2,1-1.8-.7-8.3-7.6-2.1-2.5-1.1-1-1.2-.6-2.4-.6-1.2-.6-2.9-2.2-2.2-1.5-2-1.8-1-.8-2.2-.9-21.1-3-2.9.3-2.8,1.3-30.3,18.3-2.6.9h-3l-8.6-1.6-1.9.3-5,6-4,3.5-2.2,1h0l-1.5.2h-6.2l-2.8-.3-2.5-.9-2.7-2.1-3.1-2.8-4.9-5.7-2-3.8h0l-6.8-12.5-13.6-15-11.7-11.1-5.5-3.2-6-1.4-1.6.4-4.8,2.7-.9.2-1.8-1.1L490.8,95.1l-2.7-.6-12.3,2.1-2.3,1.2-1,1.3-1.4,3.1-1.1,1.4-2.6,1.9-.9.4-2.9.5-11.9-.5-8.4,1.5-4.9-.3-1.9-.8-1.8-1.8-1.9-.9-2.7.3-26.5,6.5-4.5,1.8-3.9,2.8-13,12.6-2.4,1.1-2.5.5-5.4.2-.1,20.5-.3,1.9.7-.1,6.3-.2,5.4.9,2.9-1.4,3-.7,2.6,2.1,2.5,2.4,5.2,3.1,5.6,2.1,3,.8,2.9,1,2.8,2,3,1.4,3.1.3,2.6-1.6h0l-2.6,1.6-3.1-.3-3-1.4-2.8-2-2.9-1-3-.8-5.6-2.1-5.2-3.1-2.5-2.4-2.6-2.1-3,.7-2.9,1.4-5.4-.9-6.3.2-.7.1-2.6,18.4-13.3,21-5.4,5.1L332,210.1l-.3.9.8,21.2-2.2,11.2-.1,3.7,2.1,6.2.4,2.9-1.4,2.9-1.5,1.4-.9,1.3-.4,1.4.5,4.8.8,1.7.6.5,2,2.1,1,1.6.4,1.7-.6,1.8-1,1-4.3,2.6-1.8,1.9-5.8,9.9-1,3.9-2.2,5.8.2,2,1.2,2.3,14.9,21.1,2,2,1.6-.1h0l.7.1.7.6-.9,3.3v1.9l.4,1.7.6,1.5.8,1.5,1.7,7.5-.1,2.5-1.8,4.5-.1,1.5.5,1,2,2,.4.9.8,2.8.8,1,2.2.5,1.1.6.7,1.7.4,2.4.1,4.7-.7,2.3-2.1,4.2-.7,2.2-.1,4.4-.6,1.6-1.2,1.6-1.3.2-5.4-2.8-1.7-.4-1.7.6-1.6,1.6-.8,1.3v1.7l-.4,1-2.1,3.2-1.7,3.9.1,1.6,1.2,1.9,5.6,5.9.8,1,.2,1.3-.2,1.6,7.7-1.5,13.3-.4h0l-13.3.4-7.7,1.5-.8,2.3-1.1.8-1.2.6-1.3,1.2-.5,1.4-.5,7.2-.9,1.7-2.7,3.2-2.1,4-1.5,1.4-5-.5-3.3.8-5.9,2.5-1.4,1-.7,1.7-.2,1.9.3,1.7,1,2.6.7,2.5-.6,2.2-2.7,1.6-1.5-.1-1.6-.3-1.4.4-.6,2.1.6,1.6-.1.4-5.1,6.7-.6.6-1.4.4-.6.5-1.6,2.6-.3,2.3.6,2.4,1,2.6.3,1.4v5.5l-.5,1.8-1.7,3.2-2.8,8.7-1.3,2.6-2,1.5-5.7,1.4h-1l-2.5-1.4-.9-.1-2.6.1-.9.2-.9.6-1.5,1.3-1.1.2-6.4-.6.3,2.3-.2,5.3-.5,2.3-1.2,2v.8l.7.3.4.6-.1,1.3-1,2.4-.3,1.3.5,2.1-.5,1.2-1.4.6-.5.6v.9l1.6,20.6,4.9-4.2,3.2.1,6.6-1.5,2-1.3,1.5-1.9,4.6-3.7,1.9-.8.6-.8,1.3-1.1,1.7-1,3.4-3,1.8-1.1,1.9-.6,1.3-.1,1.4.3.6.9,1,.5.9,1,1.1-.2,9.8-4.5,3.7-2.8,3.4-1.7,3.6-2.7,17.1-8.6,1.9-1.4,1.6-1.8h0l-1.6,1.8-1.9,1.4-17.1,8.6-3.6,2.7-3.4,1.7-3.7,2.8-9.8,4.5-1.1.2-.9-1-1-.5-.6-.9-1.4-.3-1.3.1-1.9.6-1.8,1.1-3.4,3-1.7,1-1.3,1.1-.6.8-1.9.8-4.6,3.7-1.5,1.9-2,1.3-6.6,1.5-3.2-.1-4.9,4.2.2,2.5-.7,2.8-.6,1-1.7,1.9-.4,1.1.2,3.1-.7,3.4-.1,1.6.3,2.1.7,1.8,1.6,3.5.6,1.8-.1,1.8-.6,1.6-.9,1.4-.6,1.4-.3,1.6-.2,5-1,5.3-.3,5.3-1.2,2.4-.1,1h0l.7,1.3,1,2.4,1.9,2.3.8,1.2.2,1.2-1,14.1.5,3.3,1.6,3.1,2.5,2.9,1.8,3.1-.2,3.5-.5,1.4-1.8-.4h-.9l-.6.4-.2.9,1.7,20.7-.3,1.9-.7.9-1.1,2.2.2,1.6.7.9,2.2,1.8.5.8-.3.9-2.9,1.3-2.2,3,.3,3,1.1,3.2.4,3.6-.9,3.5-.2,1.8.4,1.6,1.4,1.4,1.9.3.5.4.1.9.3,3.8-.5,1-1,.7-1.5,1.3-1,1.8V709l.7,3.6-.1,1.7-1.9,5.4-.3,1.7h0l-.6,3.7v5.1l18.6-1.7,12.9.6,10.9-1.2,9.3.4,4.9-.5.4-1.9-1.6-2.5.9-1,.6-1.6,1.1-1.8.3-1.7-.5-1.8.3-.7,2.3-.4,1.8-2.1,1-.8,1.4-.9v1.2l-.6,1.8.4,2.1.8.7h1l1.3.5h1.1l1.9-.6,2.9-1.5,2.4-.2,4-1.3,4.5-2.6,4.7-1.8,4.7,1.2,1.1-.2,1.2.7-7,1.1-1,.4-.4,1.8-1.2,1.3-1.7,1-1.8.7-1.2-.3-3.6,1.2-1.8.3h-3.4l-.8.3.1,1.7-.1.9-1.2,1.3-1.3.7-1.4.2-1.6.1-1.7.4-.8-.8-2.9,2.7-.5-2.5-.5-.4-1.3,1.1-.9-.5-1.4.5,1.2.9.8,1,1,.7,1.9.3,35.5-1.8,21.3,1.8,17.9,3.3h0l.4-2.5h0l-.4,2.5,5.3,1,7.3,3.2h0l1.3.6,3.2,2.1,5.1,4.8,9,5.7,2.6,2,2.9,3.1,2.1,3.3,1.5,1.7,3.3,1.4,1.7,1.6,9.7,12.7,9.3-22.7.1-2.7h0l-.1,2.7,5.9,2.8,3.9,4.5-.8,5.6.7,4.3,1.7,1.3h0l-1.7-1.3-.7-4.3.8-5.6-3.9-4.5-5.9-2.8-9.3,22.7.4.5,3.1,6.8.8.1,4.2-3.9,1.2-.9,6.4-3.3,3.2-1,2.9-2.6,1.7-.3-1.9,3.2-6.8,2.5-2.6,2.3-.1.8.5,1.6-.4.6-.6-.2-1.7-1.3-1-.4-1,.7-.8,1.5-.5,1.9-.2,1.7.3,1.9,1.6,2.7.8,2.4,1,1.7,1.3,1.6L458,795l1.6,1,2.1-.8,2-1.1.9-.3,1.9-.1,1.5-.6,1.1-1.1.9-1.6,2.2-6.3h.5l.2,1.6-.2,1.2-1.6,4.6v1.4l.7,1.2,1.6.9,1.3.1,1.5-.4,1.4-.6.9-.8,1-2.6.8-.8,1.6-.1,1.4.7,1.7,1.2,1.4,1.4.6,1.3-.1,1.4-1.3.3-.9-2.8-.9-.7-1.2-.3-1.3-.1-1.1.5-.7,1-1.3,3-.9,1.1h-.5l-1.8-.9-3-.6-8.2-.3-1.3.6-1.4,1.5-.5.3-.3.8.2,1.8.6,1.8,1.7,1.2,2.7,2.4,1.1,1.8,9.3,3.2,4.9.2-1.1-1.8-.2-1.1.4-.5,1,.2,1,1.5,1.7.7,1.4-.3,1.1-1.2.9-2.1-.5-2.1,1.2-1.9,2-1,1.9.5,1.1-1.2,1.6.4,1.1-.6,1.2-1,1.3-.6-1.2,1.9-1,1.1-1,.5-2.7-.1-1.3.3-1.1.7-.5,1-.2,1.3.4,2.5.8,1.3,2,1.7-.7.5h-1.3l-1.4.2-2.9,1.1-.9.9-.6,1.3-.7.5-.7-1-.4-1.3-1.6.4-5.5.1-2,.5L473,816l1.7,7.5.4,3.8-.2,3.1.2.6.9.5,2-.4,1,.5,1.3-.4,1.3-.2.3-.3v-1.5l.3-.4.8.5,2.3,2.5.6,1-1.7-.4-1.7-.2.4,1.3h0l1.3,3.3-1-.6-1.5-2.1-.9-.8-1.3-.4-1.3-.1-1,.4-.4,1,.3,1.3,1.1,1.5.5,2.1.4,1.2,1.1,2.2.4,1.3.8,3.9,2.3,6.5,2.6,3,.7,2-1.9-.7,2.1,3.6.4,1.3,1,1.7,3.6,2.2v1.6l-1.2-.6.8,3.5,2.3,3.3,7.8,7.2.5.4,2.2,2.3.7.8,1.7,2,2.4.7,1,.5.6,1.1-1.7-.9.4,1,3.4,1.9,1.4,1.4.4-.9.9-.9.9.1-.9,2.1,1,2,1.9,1.5,1.7.6,1.7,1.4,1.3.8,1.2.2,1-1-.3-1.4-1.2-2.8,1.7,1.1.6-2.8h.5v2.8l1.2,1.9-.6.4.1,3,.7.4,1.8.1,1.3.5.9.9.7.1.2-1.8-.4-1.3-1.1-1.9.4-1.1-.7-1.9-.2-1.3.2-.8,1.1-.3,1,.4,1.7.3-.3,2.3v1.3l1.7-.6-.2,1.2-1.1,2-.4,1.4V903l.2,1.2.8.8,1.3.5,1.2-1.1,2.1.5,3-.1,2.4-.8.5-.8-1.2-.4-1.1.4L544,902l1.7-1.1.6-1.2.6-1.7.1-2.2-.6-1.4-.9-1.3-.9-1.9,1.5.3,1,.8.8.2-.3-2.1-.2-2.1.1-1.7h.5l1.3,4.1.4,4.5,2.9-3.4.6-.3,2.3.3-5.4,6.1-1.7,3.6,1.9,2.3,1.7-.6,3.8-.1,1.6-.7,1.5-.4,2.1-.2,1.4-.5-.6-1.5,2.2-.6,2.3,1.6,4.8.4,4.1-.9.2-2.8,1.1-3.3.3-3.4-.8-2.9-2.4-1.8,2.6-.3,1.2,2.2.4,3-.1,3.8.2,2.6.9,2.7.5.5,2.3-.2h2.6l.8-.3.7-.9-.1-1-.8-2.8-.7-1.7-1-1.8-.3-1.3-.1-3.9-.5-1.2,1.1-.7.7-1.1.4,1.1.2,5.1.3,1.1.8,1.9.2-2.7.3-.7-.5-2.8.5-3.8,1.3-3.5.5-.6h0l-1-1.3-2.7-1.2-2.3-1.8-1.3-2.8-.7-3-5.1-3.2-6.9,2.6-2.6.2-.9-2.5h0l.9,2.5,2.6-.2,6.9-2.6,5.1,3.2.7,3,1.3,2.8,2.3,1.8,2.7,1.2,1,1.3,1.1-1.3.1,2.4-.2.9-1.9,5-.3,1.4v2.9l1.1,1.4-.5,1-.3,4.9.3,1.2,1.8,1,3.1.3,3.3-.2,2.6-.5,2.1-1.1-1.1-1.2-1.7-1.5.2-1.9-1.1-1.3-.9-2.5-1.6-8.2.1-1.2.4-.7,1.9-1.6-1.5-2.7-1.1-1.3-1.8-1.1-.4-1.5-.3-3.1-.7-3-.6-1.5-.7-.6-1.1-.5-.4-1.2-.2-1.5-.3-1.5,1.4.5,1.4-.5.4,1.4.8,1,1-1,.8.1.2.7-1.5,2.2-.2,1.1.2,2,1.3,5.2,1.5,2.8,2.1,1.2,1.4.5.2,1.3-.7,2.2-1.2,1.4-.4.8-.2,1.5.4,2.1.9,2.7,1.3,2.1,1.4.8-.6,1.4.1,1.5.7,1.3.9,1,2-.7,1.8.4,1.9.9,1.8.5-.5-1.2,2.5,1.1,1.1.1.8-.3.6-1.6-1.1-1.4-2.9-5.8-.2-2,.8-5.7-.7-1.1-1.4-.4-1.6.4-.8,1.3-.6-.9.8-.9.2-1.4-1-1.4-1.2-2.1-.4-1.1-.1-1.4,2.4,2.8.8,1.4.8,1.6,1.1-.6.8,1.1,1.4.1-1.8-5-1-1.4.4-.6-.2-2,.4-1.3,1,1.9.3,1.3h.6l1.5-2.1.4.7.8,2.8,1.6,1.8.6,1L613,874l.2,1.2-.3,1.7-.8,2.3-.9.6.4,1.4,1.4,2.3.2,4.2.5,2.1,1,2h.6l2.3-.6-.9-1.3-.5-1.4.3-1.4,1.1-1-.4,1.6.5,1.2,1.2,1,1.5.7v-1.7l1.7.7,1.5-.7,2.2-2.5.6-1.5-.8-1.5-1.2-1.2-1.1-.7,2.1-1.1-.3-2.8-1.8-2.8-2.6-1.3-1.5-.5-.8-1.3-.8-2.8-.6-.6-1-.3-.2-.8,1.1-1.5,1,.5,1.4,3.8.6.9,2.5,2.1,1.8-.1,1.2-.5h.5l.2.8v2.2l.8,1.8,5.2,5.7,2.3,3.2,3.7-.6.6-1.5-.4-.5-2.2-.5-1.5-1.2-1-.3.5-.6-1.1-.6v-.5l.7-.3.7-1.5h1.5l1.1-.5,1,1.4,1.9.9,2.1.4,2.1.1,2.9,1.5,1.8.2.7-1.7h.6l.8.7.9-.1,1.7-1.1,1.7-1.8-.3-.7-1.1-1.3v-.6l.7-1v-.8l-.4-2.1.2-.9,1.1-1.1h0l.9-.6h.6l-1.5,3.9-.3,2.1,1.2,1.4-.6,1.2,1.8,2.3-.4.9-1.1.8-.3.5.2,1,1.6-.1.6.6-.6.9,7.3.5,1.2.3,1.1,1.1,2.4.4,2.7-.2,1.8-.4-1.2-.6h-1.6l.6-.9,1-.3,1,.1.8.5,14.2-1.7h3.7l1.6-.2,2.8-1.4,1.6-.1,3.4.5h7.2l4.7.6h3.6l1.6-.6,1.2-2.5.7-1.4,1.7-.9,1.3-1.2-.3-2-.7-.6-1.8-.8-.3-1.1.1-.8.9-2.4-1-1.4-1.2-3.6-.5-.4-1-.2-3.2-2.4-9.7-10.2-3-4.2-2.3-4.2h0l2.3,4.2,3,4.2,9.7,10.2,3.2,2.4,1,.2-1.2-.8L717,861l-1.4-2.5,1.4-.9-.4-1.9-2.1-4-1.1-1.4-4.6-4.4.5-.5,1.3,1.6,1,.9,1.9.7.6.7.9,1.8.5,1.4,2.1,1.2,2.3,1.7.6.9-.3,1.2,1.6.9.7.1-.7,1.2,2.2,1.9,2.4.2,1.8-1.5.6-2.8h.5l-.4,2.9-.8,3,.1,2.3,2.5.9,1.1-.2,1.6-.8,1.1.1-.2.9-1.1,2.2.6.2,1.2-.1,2.3.5,1-.4.7-1.3V867l-.5-1.3.2-1.6,1.2-3,1.6-1.6.7-.3.7.1.8.8,1.4-1.3-.5-2.4-.3-1.8.7-1.3,2.3-1.6.5-1.5,3.3-5.2,1.2-1.8.8-1.6,1.2-3.7.5-1.1,1.6-2.5.9-.9,2.8-1,.6-1,2.2-11.4-.1-.9-.7-2L762,816l.5-2,1.8-3.6.6-1.8-.1-1.8-.4-3.3.5-1.8,1.3-1.6,1.6-1.5L769,797l.4-2-.9-2.3-1.5-1.6-1.9-1.5-1.7-1.6-1.1-2.1.7-1.2,1.5-1.1,1.4-1.8.4-2.1-.7-1.5-.9-1.3-.2-1.7.9-1.4,2.9-1.9,1.2-1.5,1.4-1.3,1.8.2,1.8.7,1.4-.2.3-1.1.2-2.4.5-.5,1.3-.7,1.1-1.2,1.7-2.6,7.7-8,11.4-9.2,2.1-3,2.4-5,1.1-1.3,1.2-.6,3.3-.1,2.4-1.4,2.5-4.9,2.4-1.6.5-.1h0l3.3-1.3,1.7-.8,1.4-1.3,1.9-3.7,1.2-1.1,2.5-.5h4l1-.8,6.4-20.3,1.6-1.8,1.9.1,1.7.8,1.6.5,1.9-.8,20.4-17.3,1.9-1.2,1.2.3.7,1.4,1.2,6.1.9,1.7,1.7,1.3,2.3.7,21.4-.3.1-1.9.3-1.3,1.7-2.5,1.4-.8.5-6.4.7-3.2,1-3,1.2-2.4,1.5,2,.5,4.1,1.5,1.2,2.2.7,5.8,3.1L927,680l2.8,1.9,1.3,3.3.8,3.8,1.6,3.7,2.7,2.7,7.8,1.4,2.8,2.2,1.6,3.4.3,4-.2,3.3.3,3.3,1.4,6.5,1.6,4,1.4,1.2,2.2.3,7.6-.8,1.4.8,1.1-.1,1.2-1,2.7.5.9.1,2.1-.5,2.1-1.1,1.6-1.5.5-1.9.6-3.5,1.2-2.8,2.2-1.8,3.3-.3,2.2-1.3,2-2.8,2.4-5.6.6-2.2.2-2.3-.4-1.5-1.9-2.1-.5-1.2.5-2.3,1.5-2.1,5.1-4.7,4.8-3.1.6-1.5.7-.5.9.1,2.8-.5.5-.7.3-1.5,1.3-.8,3.5-3.2,1-.6,1.1-.4.9.1,1.5.6.8-.4.7-1.9-1-2.1-3.2-3.5-4.2-6-1.1-1-2-.4-.5-.5.7-.7,1.5-1.2,1.6-1.6,5.2-7.7,4.9-4.8-1.1-4.3-2.1-4.5-1-5.5v-5.7l-4-9.6h0l4,9.6v5.7l1,5.5,2.1,4.5,1.1,4.3h0l5.2-5.1,2.2-3.3,1.3-.9,1.1-1,.3-1.7-1.2-4.9-.1-1.8.2-1.8.6-1.8,3-5.4,8.3-11.6,3.1-3.3.5-1.2-.3-1.4-.5-2-.5-3.3v-3.2l.5-2.1,3.4-4.8.6-1.8.1-1.7-1.3-6.8-.2-3.8.6-3.7,1.9-2.7,1.8-.8,3.2.6,1.8-.3,1-.7,1.8-2.8,2.5-1.8.7-.7v-2.4l-.3-1.2-1.9-4.7-.7-1.3,2.3.8,1.2.2,1.1-.1,1.3-.6,2-1.2,1.6-.2,1,.3,2.7,1.2,1.2.3,1.3-.3,8.5-4.6,1.5-1.6,1.2-2.7.8-2.4.6-1,.9-.4,3.3.2,1.1-.5,1.8-2.4.9-3.7,1.9-15.8-.6-3.1.1-3.4,1.7-4,3.8-7,.5-1.4.3-1.6.1-3.3-.6-2.5-.9-1.8-2.3-.3-.4-.3.6-1.5.5-.4,4.9-2.4,1.6-1.4,2.4-3.1,1.1-.9,5.8-2.5,6.5-1,5.5-2.2,2.3-6,.4-5.4,1.1-5.7.8-2.1.8-1.4.2-1.3-.9-1.9-2.5-2.5-.8-1.4-.1-1.9.6-1.7,1.9-3.1.4-2-.3-1.6-1-2.8-.1-1.7,1.5-2.9,2.8-1,6.5-.8,1.6-.6,1.9-1.2,1.8-1.4,1-1.2,1.3-2.9.2-1.1-.2-1-.5-1.7V404l1.9-5.3,2.8-15.9,3.1-10.6,2.3-4.9L1172,346l.5-1-4.9.3-12.1,2.6-2.7-.3-2.7-1-.9-.8-1.2-.2-2.8.4-.7,4.8v5.8l-1.1,5.9-4.6,11.4-2.9,11.3-4.2,2.3-5.7-1.2-4.9-3.2-4.6-4.1-5.6-2.5-7.2-1-6.8,1.6-4.5,5.3-4.9,4.4-3.1.2-2.1,1.6-1.5,3-2.3,2.6-6,2.7-6.7.7-6,1.3L1055,403l-8.6,11.2-10.6,7.5-13.4-.7-.9,7.3.5,11.2-1.3,3.5-3.1,2.5-15.4,9.3-7.1,3.2-7.6,1.2h0l7.6-1.2,7.1-3.2,15.4-9.3,3.1-2.5,1.3-3.5-.5-11.2.9-7.3-5.9-3.8-5.6-9.1-3.1-2-3.6-1.4-3.1-2.2-2.6-3.2-1.8-3.7.2-3.7,6.2-10.1-1.1-7.3h0l-3.1.3-5.8-.6-.8-2.5-.5-6.1,1-19.4-.5-2.9-1.8-2.3-8.7-8.8-4-5.5-4.6-4.9-5.3-4.2L956.5,312l-11.6,3.1h0l11.6-3.1,11.4,5.6,5.3,4.2,4.6,4.9,4,5.5,8.7,8.8,1.8,2.3.5,2.9-1,19.4.5,6.1.8,2.5,5.8.6,3.1-.3h0l1.1,7.3-6.2,10.1-.2,3.7,1.8,3.7,2.6,3.2,3.1,2.2,3.6,1.4,3.1,2,5.6,9.1,5.9,3.8,13.4.7,10.6-7.5L1055,403l4.8-4.1,6-1.3,6.7-.7,6-2.7,2.3-2.6,1.5-3,2.1-1.6,3.1-.2,4.9-4.4,4.5-5.3,6.8-1.6,7.2,1,5.6,2.5,4.6,4.1,4.9,3.2,5.7,1.2,4.2-2.3,2.9-11.3,4.6-11.4,1.1-5.9v-5.8l.7-4.8,2.8-.4,1.2.2.9.8,2.7,1,2.7.3,12.1-2.6,4.9-.3h0l.6-1.4-.6-3.2.4-1.7.9-1.5,1.3-1.2,3.2-1.8,1-1.3,1.4-3.4,2-3.6,2.8-3.5,3.1-3.2,3.2-2.6h2.6l3.2,1,5.9,2.5,1.7.2,1.8-.4,1.8-1,1.5-1.1,2.3-2.4,1-.4,2.2-.3.7-.2,7.4-6.9,1.6-.9,4.9-1.6,1.7-1,3.1-2.8,1.7-1,4.3-1.6,1.5-.8,1-1.5.8-2.1.7-2.1.3-1.7-.1-2.2-.4-1.7-1-1.4-1.3-1.4-1.1-1.7-.6-.4-1.8-.1-.7-1.1-.2-.7.4-.7,3.1-4.1.6-1.4,1.8-8.7.9-2.7.3-2.8-.1-1.6-1.6-3.6-.2-1.7,1.5-1-.2-.9,1.5-6.1,1.1-2,1.6-1.6ZM874.8,251.5l-1.3,2.9h0l1.3-2.9-.7-3.5.5-2.8,6-16.9.8-3.8,1.2-3.7,1.9-1.8h0l-1.9,1.8-1.2,3.7-.8,3.8-6,16.9-.5,2.8Zm55.9,157.4h0l-9.5,4.8h0Zm-11.6-74.5h0l6.3-1.9,1.8-1.4-1.8,1.4Zm-2.5,2.2h0l.9-.79Zm23.3-16.2-7.8,4.5h0l7.8-4.5ZM894.2,185.5l3,1.4,3.1.7,2.8-.1,2.3,1.7,2.6,5.5,1.5,12.1,1.8,5.5h0l-1.8-5.5L908,194.7l-2.6-5.5-2.3-1.7-2.8.1-3.1-.7-3-1.4-2.7-.3h0Zm-16.9-13.2,2.1,3.3,2.2,8.5.8,2.2,3.6.5,1.4-.41-1.4.41-3.6-.5-.8-2.2-2.2-8.5-2.1-3.3-3.5-1.1h0Zm-15.1,3.1h0l-4,1h0Zm-31.1,96.4h0l-1.7,6.3,3.5,2.4,5.1-1.4,3-.4,2.8.7,1.3,2.8,1.3,6.1.1,2.9-2.8,5.2-.3,2.8,1.6,2.3h2.7l1.5-.5,3.4,6.1,8,10.7,6.1,2.4,13.2,2.5,7.1.3,6,2-.4,2.8-2,2.3h0l2-2.3.4-2.8-6-2-7.1-.3-13.2-2.5-6.1-2.4-8-10.7-3.4-6.1-1.5.5H845l-1.6-2.3.3-2.8,2.8-5.2-.1-2.9-1.3-6.1-1.3-2.8-2.8-.7-3,.4-5.1,1.4-3.5-2.4Zm46.7,72.5h0l-1-3.1,1.8-5.7h0l-1.8,5.7ZM791.5,600.5Zm-45.1,93.8h0l-.8-3.2h0Zm-19.9,41.4-1.6-2.5h0l1.6,2.5Zm-61.7,72-2,4.6-.1,1.1h0l.1-1.1,2-4.6Zm-5.1-31.6-4.9-2.5h0l4.9,2.5,12.1.1,4.5,2.1.25,1.2-.25-1.2-4.5-2.1ZM588,816.3l1.2-2.7.7-5.9h0l-.7,5.9-1.2,2.7Zm-8.1-13.6,2.6-13.1,1-2.9h0l-1,2.9-2.6,13.1ZM374.2,718.9l4.8-2.6.8-1.8h0l-.8,1.8-4.8,2.6Zm-8.7-8.4.7-2.1,2-1.6.9-2.2h0l-.9,2.2-2,1.6-.7,2.1Zm-86.7-95.8-3.1,8.5h0l3.1-8.5Zm56.8,30.7-.1,4.7h0l.1-4.7Zm28.7-20.6.1-2.4,1.4-2.1.8-2.4.4-2.5.3-5.5,1.4-3.8,5.6,1.5,4.3-3.1-.09-1.6.09,1.6-4.3,3.1-5.6-1.5-1.4,3.8-.3,5.5-.4,2.5-.8,2.4-1.4,2.1-.1,2.4Zm14.2-22.1,1.6-1.5,1.5-2.2,1.8-1.8,2.6,1,2.3,2,3.1,5,3.3.7,1.8-1.8,2.4-1.7,1-1.3.8-.3,1.4-1.2,1.6-.9,1.5-.6,1.8-.3,1.1-1.6.2-2.9-.47-2.2.47,2.2-.2,2.9-1.1,1.6-1.8.3-1.5.6-1.6.9-1.4,1.2-.8.3-1,1.3-2.4,1.7-1.8,1.8-3.3-.7-3.1-5-2.3-2-2.6-1-1.8,1.8-1.5,2.2-1.6,1.5Zm-41,70.6,2.3-3.8,3.1-4.3h0l-3.1,4.3-2.3,3.8Zm30.4-5.4h0l5.7-30.4-.5-2.4h0l.5,2.4Zm2.3-37.4h0l.05.1Zm20.9,45.8.14,1-.14-1-.19-.5ZM433,587.8l-5.4.5-2.3.5-2.1.9-4.7,1-5.4-.5-5.4.3h0l-1.4-.9-1.4-.3-1-1.7-2.4-8-3-4.9-2.2-1.4-1.9-1.7-3-4.4-2.9-11.3-2.9-4.5L378.2,535l-1.1-5.1,1.1-5.1h0l-1.1,5.1,1.1,5.1,7.4,16.4,2.9,4.5,2.9,11.3,3,4.4,1.9,1.7,2.2,1.4,3,4.9,2.4,8,1,1.7,1.4.3,1.4.9,5.4-.3,5.4.5,4.7-1,2.1-.9,2.3-.5,5.4-.5,3.3-1.3,3.5.1,1.7,2.9,2.5,1.6,4.8-.6,1.2.2,1,.6.4,1.5,1.7.7,5.2-1.6,5.5,3.5,3.3.2,2.1.5,3.5-.6h1.4l1-2h0l-1,2h-1.4l-3.5.6-2.1-.5-3.3-.2-5.5-3.5-5.2,1.6-1.7-.7-.4-1.5-1-.6h0l-1.2-.2-4.8.6-2.5-1.6-1.7-2.9-3.5-.1Zm96.4-270.1.7,12.9,3.5,4.7,6.4,10.8,1.3,5.6h0l-1.3-5.6-6.4-10.8-3.5-4.7h0l-.7-12.9L523,307.5l-3.3-1.3-1.6-2.6,2.1-6.4.4-5.8-3.9-3.8-3.1-1.1-6.2-1.1h0l6.2,1.1,3.1,1.1,3.9,3.8-.4,5.8-2.1,6.4,1.6,2.6,3.3,1.3ZM644.8,483.2l2.3.1,2.3.3,2.1.9,1.8-1.3,2.6-3.7,3,1.1,1.5,2.9,2.7-.6,2.3-1.1,1.2,2.3,2,1,2.7-.2,2,1.7,2.8.2,2.8,1.2,2.9-1.3,3.2-5.9,5.1-.8,2.7,2.5.8,1.9h0l-.8-1.9-2.7-2.5-5.1.8-3.2,5.9-2.9,1.3-2.8-1.2-2.8-.2-2-1.7-2.7.2-2-1-1.2-2.3-2.3,1.1h0l-2.7.6-1.5-2.9-3-1.1-2.6,3.7-1.8,1.3-2.1-.9-2.3-.3-2.3-.1-7.9.9-11.7,16.7-.5.1-4-2.2-.1-.1.1.1,4,2.2.5-.1,11.7-16.7-2-.5-2.1.6-.5-1.3.9-2.6.2-1.2-1.4-1.8-1.1-.7-1.7-2.6.7-3.1h0l-.7,3.1,1.7,2.6,1.1.7,1.4,1.8-.2,1.2-.9,2.6.5,1.3,2.1-.6,2,.5Zm204.6-33.8h0l-.8,2.8-5.5,2.1-2.1,1.8-2.5,5.2-2.9,1.2-3.3.7-13.1.7-11.8-2.2-5.1-1.7-2.9-5-3.7-4.4-3-.9-2-2.1h0l2,2.1,3,.9,3.7,4.4,2.9,5,5.1,1.7,11.8,2.2,13.1-.7,3.3-.7,2.9-1.2,2.5-5.2,2.1-1.8,5.5-2.1ZM725.6,599.3l3.9,8.6.6,3-1.1,1.3h0l1.1-1.3-.6-3-3.9-8.6-1.9-6.1,1.3-5.9,4.7-3.9,10.9-1.3h0l-10.9,1.3-4.7,3.9-1.3,5.9ZM692.5,766.4l-1.4-2.6h0l1.4,2.6ZM690.6,812l-4-7.7h0l4,7.7Zm-35.1-43.8v0Zm-21.9,63.3-1.7-3.1h0l1.7,3.1ZM510.1,674.7l-1.1,3-.2,3h0l.2-3,1.1-3,2.2-2.3,1.1-1.5.5-2,3.8-8.8h0l-3.8,8.8-.5,2-1.1,1.5Zm-72.3-58.1-.44,1.8.44-1.8.1-1.4Zm.7-10.1h0l3.9-5.1,3.1-1.5,2.6-2.3h0l-2.6,2.3-3.1,1.5ZM425,326.2l5.2,4,6,2.5,6.4,1H444l1.1.7h0l-1.1-.7h-1.4l-6.4-1-6-2.5-5.2-4Zm56,13.7,1.1,3h0l-1.1-3-.1-3.3.5-6.5-1.3-2.8h0l1.3,2.8-.5,6.5ZM538.3,370l-1.4-4.3-.1-2.1.5-7.1.7-2.1h0l-.7,2.1-.5,7.1.1,2.1,1.4,4.3.1,2-.4,1.9-1.2,2.9-.2,1-.2,3.4h0l.2-3.4.2-1,1.2-2.9.4-1.9Zm-2.2,16.8,2.7,2,2.1,2.5,1.4,2.9,2.9-.4h0l-2.9.4-1.4-2.9-2.1-2.5-2.7-2-.5-2.9.3-1.7h0l-.3,1.7Zm2.49-33.11,1-1.19h0ZM613.9,316.4h0l-1.3,1h0Zm-6.5,67.5.1,6.8-1.1,3,1.8,1.9,5.9,2.2,2.5,1.7-.2,2.9-2,2.6h0l2-2.6.2-2.9-2.5-1.7-5.9-2.2-1.8-1.9,1.1-3-.1-6.8-4.6-3.9-2.9.9-1.4-.4-.5-6.8-.7-1.7-2.6-1-3-.2-2.7,1.1h0l2.7-1.1,3,.2,2.6,1,.7,1.7.5,6.8,1.4.4,2.9-.9ZM609,409l-2.2,2.7h0L609,409Zm84.5,77.6,2.7,2.1,3.3,2,.9,9.9,2.1,8.1,6.6-3.6,4.8-6.8,2.2-2.1,2.7,1.1,7.5,2,3.4,4.4,1.6,1.6,1.1,1.9,2,2,3.3-.4,3.5-3.6,2.7-4.7,2.1-5,3.1-3.6,1.7-4.8.4-5.2-3.2-4.5-.2-.21.2.21,3.2,4.5-.4,5.2-1.7,4.8,2.4,1.2-2.4-1.2-3.1,3.6-2.1,5-2.7,4.7-3.5,3.6-3.3.4-2-2-1.1-1.9-1.6-1.6-3.4-4.4-7.5-2-2.7-1.1-2.2,2.1-4.8,6.8-6.6,3.6-2.1-8.1-.9-9.9-3.3-2-2.7-2.1Zm12.2-187.2-.1,3.2-1.5,2.8-.4,3h0l.4-3,1.5-2.8.1-3.2Zm81.1,123.8,5.3,1.9,1.8,5.8.4,6.9h0l-.4-6.9-1.8-5.8-5.3-1.9-9.6,1.7-3.1-2.1h0l3.1,2.1ZM759.3,503l-1.3-5.7-2.6-1.9,2.6,1.9,1.3,5.7,3.9,4.1,1.1.22-1.1-.22Zm14.9-93.7-.4-4.2-1.7-4.6-2.9-3.7-4.9-1.3-4.8.9-.8,2.4-.4,2.8-2,2.7-3,1.4-4.2,4.7-1.5,6.3,2.2,6.4-3.3,11.1v6.5L746,444l.7,2.8-3.4,4.8V453l-.2,1.5-2.4,1.8v12h0v-12l2.4-1.8.2-1.5v-1.4l3.4-4.8L746,444l.5-3.3v-6.5l3.3-11.1-2.2-6.4,1.5-6.3,4.2-4.7,3-1.4,2-2.7.4-2.8.8-2.4-1.8-2.1-1.9-1.8-2.5-1.4-1.2-2.2h0l1.2,2.2,2.5,1.4,1.9,1.8,1.8,2.1,4.8-.9,4.9,1.3,2.9,3.7,1.7,4.6.4,4.2Zm-18.9-57.6,2.3,6.5,3.8,4.5.6,5.8-2.3,5.6h0l2.3-5.6-.6-5.8-3.8-4.5-2.3-6.5-.3-7.1.5-6.4,1.78-3.62-1.78,3.62-.5,6.4Zm.6,26.6h0l-.9,5.5h0Zm-21.7-10.4,1.7-2.3,3.5-.9,1.2-3.2h0l-1.2,3.2-3.5.9-1.7,2.3Zm6.7-23-1.6,6.5h0l1.6-6.5ZM670.1,741.4l0-.2,0,.2.46,1.8Zm-72.5-40-2,4-1.8,8.2-2.8,2.7-2.1.4-2.2-.5-1.8-.1-.8.2h0l.8-.2,1.8.1,2.2.5,2.1-.4,2.8-2.7,1.8-8.2,2-4,5.6-5.3,2.2-4.5,2.8-1.8h0l-2.8,1.8-2.2,4.5h0Zm-73.7-55h0l-.3-2.6.9-1.8h0l-.9,1.8Zm-.4-11.4-1.1,1-.8,2.9h0l.8-2.9,1.1-1,2.3-.5,1-.5,1.9-2.3,1.5-2.5h0l1.4.7,1.7-.3,1.4.9h0l-1.4-.9-1.7.3-1.4-.7-1.5,2.5-1.9,2.3-1,.5Zm23.8-243.6,1.8-2.8,4.3-4.7,9.9-7.7,5.9-1.3,2.2,1.5,1.1,2.6,2.6.5,6.1-2.8,3.1-.6,3.2.5,1.9-1.3h0l-1.9,1.3-3.2-.5-3.1.6-6.1,2.8-2.6-.5-1.1-2.6-2.2-1.5-5.9,1.3-9.9,7.7-4.3,4.7-1.8,2.8-.84,1ZM629,750.6l.55.9-.55-.9-1-2.4.5-2.9h0l-.5,2.9Zm-7.4-9.5.5-2.5h0l-.5,2.5Zm11.5,16.5-1.8-2.1-.59-1.7.59,1.7,1.8,2.1Zm-6.6-13.8-.32-1.6.32,1.6Zm-4.4-6.8h0l1.1-1-1.9-4.3,1.9,4.3Zm-2.7-31.9-.4,5.7-4.6,5-2.3,6.3h0l2.3-6.3,4.6-5,.4-5.7ZM607.7,603.6l.9-.4,2.8-1.8,2.3-2.2,4.3-2.5,16.8-5.7,2.8-.3h0l-2.8.3L618,596.7l-4.3,2.5-2.3,2.2-2.8,1.8Zm.8-9,1-2.6,1.3-12.4h0L609.5,592l-1,2.6L607,597l-1,3.4v0l1-3.4Zm-113.1,7.7.4,1.2-.4-1.2Zm16-71.4,4.4-.1.7.11-.7-.11-4.4.1ZM499.21,524l4.29.09h0ZM483.1,579l5.5,3.4h0l-5.5-3.4-3.4-3.1h0Zm54,54h0l-2.7-.9h0Zm5.2,104-1.7-2.7-2.1-2.2-2.9-.3h0l2.9.3,2.1,2.2,1.7,2.7Zm43.5-78.2h0l-2.2-.7-1.1-.6h0l1.1.6Zm.2.7h0l1.3,2.9h0Zm-2.1-85.2-.1-.5h0l.1.5Zm13.4-15.2-.4,0,.4,0Zm-33.7-10h0l-.2-2.5h0Zm-2.7-7.4h0l-.2-2.2h0Zm-15.1-9.8h0l-4.6.9h0Zm-68.4,41.2,1.5,1.2h0l-1.5-1.2-1.2-1.5h0Zm0,15.6,2.9-.9,9-.3h0l-9,.3-2.9.9-1.8,2.1h0Zm11.9,5.3,2.3-1.4,3-.7,3-.3,1.6.2,1.2.9h0l-1.2-.9-1.6-.2-3,.3-3,.7-2.3,1.4-1.6-.6h0Zm22.9,19.8-3.8-1.1-6.5-3.2-1.4-1.2-1.1.1-2.8-2.5h0l2.8,2.5,1.1-.1,1.4,1.2,6.5,3.2,3.8,1.1Zm36,25-1.7,1-3.8,1.6-3.8.1-2.1-2.9h0l2.1,2.9,3.8-.1,3.8-1.6,1.7-1,1.6-.4.9,1.5,1.2,1,2.8,1.9,2.3,2.7,2,.1,3.1-.8,1.7.2,2.1,1.9h0l-2.1-1.9-1.7-.2-3.1.8-2-.1-2.3-2.7-2.8-1.9-1.2-1-.9-1.5Zm20.7,14.3h0l-1.1-1.5h0Zm1.5,3.2,4.1-.8,3.4-1.4,2.2-.2,1.3,1,.9,1.1h0l-.9-1.1-1.3-1-2.2.2-3.4,1.4-4.1.8-1.1-1.6h0Zm5.8,63.4,3,.5h0l-3-.5Zm21.1-160.6,5.1-.2h0Zm6.6,139.3h0l-.1,2.7h0Zm36.5,60.8-.22-.5.22.5Zm-.8-87.3-2.6.9-1.6,1.4-4.7,6.3-4.2,3.8-6.9,4.9-3.2,3.8-3.6,2.9-2.1-1-1.3-1.9-.6-.5h0l.6.5,1.3,1.9,2.1,1,3.6-2.9,3.2-3.8,6.9-4.9,4.2-3.8,4.7-6.3,1.6-1.4,2.6-.9,2.6-2.1,3.1-1.6,4,.3,2.8,2.5,3.2,1.6,3.5,2.9,2.7,1.3,2.2-.7.3-3.8,1.3-3.3,11.1-6.1,3.4-5.7,1.5-6.8.2-2.7,1-2.4,1.7-2.9h0l-1.7,2.9-1,2.4-.2,2.7-1.5,6.8-3.4,5.7L665.3,669l-1.3,3.3-.3,3.8-2.2.7-2.7-1.3-3.5-2.9-3.2-1.6h0l-2.8-2.5-4-.3-3.1,1.6Zm34.5-55.1-.2,9.7h0l.2-9.7Zm-7.9-16.4,1,4.3,2.5,3.6.1.1-.1-.1-2.5-3.6-1-4.3L666,596l.4-4.8h0L666,596Zm10.1,86.9-3,.8-2.5,1.9-3.3.4h0l3.3-.4,2.5-1.9,3-.8ZM608.5,561.6l-.59,1.51.59-1.51.7-2.9Zm-15.9-71.4-2,.9-.4,2.4.8,60.1.5,1.5,2,3.6h0l-2-3.6-.5-1.5-.8-60.1.4-2.4,2-.9,15.4-.6h0Zm-66.2,39.4-2,.4-2.7,1.2-1,.2h0l1-.2,2.7-1.2,2-.4,9.1-.1h0Zm-49-204-3-5.4-1.1-6.4h0l1.1,6.4,3,5.4Zm-30.2,26,.55.7-.55-.7Zm-.3-15.1-1.1-.6h0l1.1.6,2.3.7h0ZM407.6,408l-1.2,6.2h0l1.2-6.2.5-6.2-.72-.8.72.8Zm-2.3,64.5h0l-6.1.8h0Zm7.3,1.1h0l-.82-.12Zm8.3,11.5h0l-4.1-.7h0Zm9.6,12.1,3.3-1,3.7-2.2,5.4-1.7h0l-5.4,1.7-3.7,2.2-3.3,1-2.6.2h0Zm46.3,12.6h0l-5.6.3h0Zm40.8,148.4-.1,1.1h0l.1-1.1,1.8-2.1,2-1.8,1.4-.9,1.1-1.2.8-2.7-.3-1.9h0l.3,1.9-.8,2.7-1.1,1.2-1.4.9-2,1.8Zm60.6,126,.3-3.5.6-2.3.8-2.1,1.6-2.9,3.3-4.4.5-1.5-.1-2.2,1.1-4.3-.3-4.4.4-1.9,1.6-1.3,2-.8.5-.7.4-1.1.2-3.7-.1-1.2-.4-1.1-1.1-2.1-.4-1.2-.3-3.2-1.5-4.1-.5-4.6-2.3-8.2-.4-2.5v-2.6h0v2.6l.4,2.5,2.3,8.2.5,4.6,1.5,4.1.3,3.2.4,1.2,1.1,2.1.4,1.1.1,1.2-.2,3.7-.4,1.1-.5.7-2,.8-1.6,1.3-.4,1.9.3,4.4-1.1,4.3.1,2.2-.5,1.5-3.3,4.4-1.6,2.9-.8,2.1-.6,2.3-.3,3.5Zm27.4-9.9,1.1-3.6h0l-1.1,3.6-3.2,6.7h0ZM672,752.6l-.2-2.5-.28-1.2.28,1.2.2,2.5Zm-2-12.3h0l-1.5-2.2h0Zm42.3-45.5h0l0,.1Zm10.6,18,2.2,1.6.6.8h0l-.6-.8-2.2-1.6-3.2-3.7h0Zm3.1,3.3,1.4,1.6h0l-1.4-1.6Zm2.39,5.7.31.8,1.7,2.2h0l-1.7-2.2Zm43-182.8-2-2.8-1.6-4.1,1.4-3.5,2.1-2.6,2-3,3.1-1,1.9-1.9,3.5-4.7,1.2-3,.5-2.4-1.5-1.9h0l1.5,1.9-.5,2.4-1.2,3-3.5,4.7-1.9,1.9-3.1,1-2,3-2.1,2.6-1.4,3.5,1.6,4.1,2,2.8.6,3.5-.5,4.1,1.9,3.4,6.9,3.7,1.4.38-1.4-.38-6.9-3.7-1.9-3.4.5-4.1Zm21.7,16.2h0Zm13-3h0l5.2.2,4.1,1.73-4.1-1.73ZM780,315h0l-8.5,8.9-3.2,4.9-2.3,2.4h0l2.3-2.4,3.2-4.9ZM729.2,209.3l-2.5,3.8-1.4,4.2-1,1.6h0l1-1.6,1.4-4.2,2.5-3.8,4.2-2.2h0ZM629.1,446.6l1.7,2.3,3,.9,1.8,1.5-.7,2.3,1.2,2.1,2.5,1.3.5,2.7-1.9,2.1h0l1.9-2.1-.5-2.7-2.5-1.3-1.2-2.1.7-2.3-1.8-1.5-3-.9-1.7-2.3Zm.8-.62,1-.78h0Zm5.9,17.27-.6,1.05-.3,1.7-.5,1.6h0l.5-1.6.3-1.7Zm0-23.15-.1,3.1h0l.1-3.1-1.6-13.5-4-2.8-12.3.2-6.2-.7-5.9-2.6-3.8-4.9,2-2.3h0l-2,2.3,3.8,4.9,5.9,2.6,6.2.7,12.3-.2,4,2.8ZM547.6,165.5h0l.6-.18ZM492.1,287.4l-5-1.1-7.2-3.1-1.2-2.5-2-1.6h0l2,1.6,1.2,2.5,7.2,3.1,5,1.1ZM472,279.8l-2-.1-1.8-.9h0l1.8.9,2,.1Zm-17.2,4.3,1.7.4h0l-1.7-.4-1.4-1.1-3.4-1.3h0l3.4,1.3ZM419,368.6l-.2,1.5-.6,1.1-2.1,2.2-.2,1.5-9.6,5.5-3.2,5.4-.5,6.3.3,3.2,1.3,2.9h0l-1.3-2.9-.3-3.2.5-6.3,3.2-5.4,9.6-5.5.2-1.5,2.1-2.2.6-1.1.2-1.5-.1-3.2,2.8-15.1-.1-2.1h0l.1,2.1-2.8,15.1Zm15,288.2h0v0Zm53.5,38.7,2.2,5.5,1.8-.3,4.1-3.3,2.4.2,1.1,1,2.6.6,1.4-.5.9-.6,1.2-2,.4-1.2,1-5.3.8-2.1,1.9-.5-.1-1.3,1.1-1.5h0l-1.1,1.5.1,1.3-1.9.5-.8,2.1-1,5.3-.4,1.2-1.2,2-.9.6-1.4.5-2.6-.6-1.1-1-2.4-.2-4.1,3.3-1.8.3-2.2-5.5Zm12.3,62.2,9.7,5.3,4.6,5,2.8,1.5,2.3,1.8-.4,3-1.7,3,.3.9,1,.8.4,1-.3,1,.1,1.3,1.4.5h0l-1.4-.5-.1-1.3.3-1-.4-1-1-.8-.3-.9,1.7-3,.4-3-2.3-1.8-2.8-1.5-4.6-5-9.7-5.3Zm150.8,92.6-.5,1.5-.2,1.4h0l.2-1.4.5-1.5Zm4-13.5-.5,3.7-2.7,2.7-1.9,3h0l1.9-3,2.7-2.7.5-3.7Zm23.7-53,2.7,2.1,3,1.1h0l-3-1.1-2.7-2.1-1.4-2.6h0Zm97.3-194.7-3,.3h0l3-.3v-.4h0Zm32.5-.6-.3-2.3-.6-1.5.2-1.5-.3-4.3-4.4-5.6.3-2.6.9-2.2,1.4-1.8h0l-1.4,1.8-.9,2.2-.3,2.6,4.4,5.6.3,4.3-.2,1.5.6,1.5.3,2.3Zm17.4-29.1-2.9-1.87,2.9,1.87,3.1,4.4-2.3,3.6h0l2.3-3.6ZM788.6,252.1l-2.9,2h0l2.9-2Zm-12.9-2-1.9.7h0l1.9-.7Zm-.7-64.8h0l-1.4.7-.2.18.2-.18Zm-60.5-.9,6-.1,5.4.7,12.8-.6,1.6,1.5,1.5,4.4,2.2,3.9,2,1.2,2,.8,1.9-.1,2.7-1.5,1,1.3,1.2,1.1,3.3.3,4.5-1,4-2.2,1.6-1.25-1.6,1.25-4,2.2-4.5,1-3.3-.3-1.2-1.1-1-1.3-2.7,1.5-1.9.1-2-.8-2-1.2-2.2-3.9-1.5-4.4-1.6-1.5-12.8.6-5.4-.7-6,.1-8.9,1.4h0ZM669.2,296.3l1.3-4.1,2.6-3.1,3.9-1,4.6-2.4,3.8-.9-.3-3.3-2.1-5.3-.8-1.1-.3-1.3.5-1.6.1-1.6-.4-2.7-1.8-5.5.5-17.8-.8-8.3,1-3.8,6.4-4.5,14.6-5.5,3-2.9,2.8-8.2,2-3.6,3.8-1.2h0l-3.8,1.2-2,3.6-2.8,8.2-3,2.9L687.4,228l-6.4,4.5-1,3.8.8,8.3-.5,17.8,1.8,5.5.4,2.7-.1,1.6-.5,1.6.3,1.3.8,1.1,2.1,5.3.3,3.3-3.8.9-4.6,2.4-3.9,1-2.6,3.1-1.3,4.1-.6,4.1,1.3,4.3,5.7,4.9-2.34,3.56,2.34-3.56-5.7-4.9-1.3-4.3ZM644.57,312l-1.37,2.63-.4,3h0l.4-3ZM631.2,317.7l-1.4,4.6,1.4,2.1.1,2.5-2,2.2-2.8,1.5h0l2.8-1.5,2-2.2-.1-2.5-1.4-2.1,1.4-4.6Zm-16.4-45,1.7,1.2h0l-1.7-1.2ZM586.4,158.2l3.3-2.59-3.3,2.59-6.5,3.8h0Zm-35.7.9.4-2.1,1.1-1-1.1,1-.4,2.1-.1,2.3-1,3.5h0l1-3.5ZM538.3,165l6-.8h0l-6,.8-2.9,1.59Zm-5.3,2.9h0l-.9,2.4,1.4,14.6-2.4,4.7h0l2.4-4.7-1.4-14.6Zm-6.73,23.53-1.27.37-1.8.17,1.8-.17ZM488,233.2l4.1-4.5-.3-6.6-1.7-6.3.5-5.6,4-2.7,4.3-5.5,3.1-5.1,3.3-2.59L502,196.9l-3.1,5.1-4.3,5.5-4,2.7-.5,5.6,1.7,6.3.3,6.6-4.1,4.5-25.4,1h0Zm-37.7-1h0l-3,10.2-.7,39.9h0l.7-39.9Zm-16,49.1,1.7-.4,1.8.4,1.3.7,1.9-.6,1.3.8.9,1.3,1.8-.2,1.6-1h0l-1.6,1-1.8.2-.9-1.3-1.3-.8-1.9.6-1.3-.7-1.8-.4-1.7.4-15.8,7.2-2.2,2.73,2.2-2.73Zm-4.1-92.9-.7,6.2-.8,3.1-.4,3.3,2.5,13.7-.3,6.4h0l.3-6.4L428.3,201l.4-3.3.8-3.1.7-6.2-1.9-5.3-2.8-4.8.5-3.5.9-3.2.5-1.2.4-1.3v-1.6l.2-1.6h0l-.2,1.6v1.6l-.4,1.3-.5,1.2-.9,3.2-.5,3.5,2.8,4.8Zm-2.1-29.5,1.5,1.8-.3,2.7h0l.3-2.7-1.5-1.8-2.2.7h0Zm-3.7,2.8.9-1.26-.9,1.26-.4.68ZM406.2,282l3.7-8,2.8-13.3-.6-32.7h0l.6,32.7L409.9,274l-3.7,8-.7,8.1,2.7,3,3.7,1.3,3.7-2.3h0l-3.7,2.3-3.7-1.3-2.7-3ZM342.6,497.3l3.7-2.7,4-.4,3.8,1.7,2.4,3.1,1.9,3.7,3.2,2.8,3.7,1.9,9.8,3.5,6.1,1.4h2.3l4.1-2.5L389,513h0l-1.4-3.2-4.1,2.5h-2.3l-6.1-1.4-9.8-3.5-3.7-1.9-3.2-2.8-1.9-3.7-2.4-3.1-3.8-1.7-4,.4-3.7,2.7-2.1,4.1h0ZM268.5,718.7l-.1-1.2h0l.1,1.2Zm23.9-1.5.17-.2-.17.2Zm97.8,8.1h0l.1,2.1Zm5.8-12.1-2.7-.9-1.1-.8-1.2-2.1h0l1.2,2.1,1.1.8,2.7.9,1.4.2,4.3.2,3.6-2.3,1.3-1.9,2.1-1,1.5,2.2h0l-1.5-2.2-2.1,1-1.3,1.9-3.6,2.3-4.3-.2ZM408.9,733l-.1-2.3-4.6-2h-2.5l-1.5-1.7h0l1.5,1.7h2.5l4.6,2,.1,2.3Zm2.1-12.6-.8-3.9h0l.8,3.9Zm23-53.2-.2-1.9h0l.2,1.9Zm14.8,75.7h0l.2,1.1h0Zm4-20.5-1.4,2.1-.6,2.5-1.2,2.1-2.1,1.1-1.8.6-1.2,1.8-.4,2.4-1.2,2.3h0l1.2-2.3.4-2.4,1.2-1.8,1.8-.6,2.1-1.1,1.2-2.1.6-2.5,1.4-2.1,1.9-4.4h0Zm9.8-34.4-1.4.6-1,1.1v2.2l-1.3,1.8-1.1,2.2-3,2.9-2.5,3.2-1,1.8-.3,2.7-.3,1.2v2.6h0v-2.6l.3-1.2.3-2.7,1-1.8,2.5-3.2,3-2.9,1.1-2.2,1.3-1.8v-2.2l1-1.1,1.4-.6h23.3l3.8,3h0l-3.8-3Zm9.6,71.4h0l5.4.3h0Zm14.2,2.4-3.2-2.3-3.1-.2h0l3.1.2,3.2,2.3,2.4.8h0Zm59.3,66.7-.1-.7-.8-1.3-.2-.9h0l.2.9.8,1.3.1.7Zm6.3-6.3.2-2.2h0l-.2,2.2Zm12.9,42-.7-1-1.2-.1-1.2-.6-1.9-2.5h0l1.9,2.5,1.2.6,1.2.1.7,1Zm.2-17.6L564,845l-.6-1.9h0l.6,1.9,1.1,1.6Zm14.3-30.4-.4-.8-2.4-2.8-7.7-.7.1,1.8h0l-.1-1.8-1.5-3.7h0l1.5,3.7,7.7.7,2.4,2.8.4.8Zm67.3,40-4.4-.1-3.1-1.3-3.3.1-6.8,1.4-3.4-1h0l3.4,1,6.8-1.4,3.3-.1,3.1,1.3,4.4.1,5.6,3.8h0Zm7.7-26.9-.3,3.6h0l.3-3.6,1.2-5.3h0Zm10.7-12.1-2.4,1.6-4.3-.6-3.7,1-.1,1.7h0l.1-1.7,3.7-1,4.3.6,2.4-1.6.5-1.6h0Zm11.5-9-2.8-4.4-4.1-2.9-3.2-.5-2.2,1.6h0l2.2-1.6,3.2.5,4.1,2.9,2.8,4.4,4.7,2.6,4.3,3.4h0l-4.3-3.4ZM698,825.3l-3.7-2.4-2.1-.5-4.9.8-1.7-1.3-.9-1.5-.7-1.8.7,1.8.9,1.5,1.7,1.3,4.9-.8,2.1.5,3.7,2.4,1.4,1.6h0Zm1.44-61.8.76,1.8h0Zm76.36-64.3h0l-.8,5h0Zm58.2-4-.3-5.3h0l.3,5.3Zm20-55.4-3.7-9.7-8.5-7.6-7.5-9.4-9.4-6.5-12.7-1.5-12.8.4-3.3.6-5.6,2.6-2.6.5-1-1.8h0l1,1.8,2.6-.5,5.6-2.6,3.3-.6,12.8-.4,12.7,1.5,9.4,6.5,7.5,9.4,8.5,7.6,3.7,9.7Zm60.9-126-.1-3.2-1.1-5.2.6-2.7v-2.4l-2.4-8-1.4-2.3-.7-2.5-.9-6.3.6-5.4-.5-4.5-1.8-4h0l-2.6-1.1-13.9-8.7-40.8-19-2.6.6-1.2.8-1.1,1.9h0l1.1-1.9,1.2-.8,2.6-.6,40.8,19,13.9,8.7,2.6,1.1,2.9-1.91-2.9,1.91,1.8,4,.5,4.5-.6,5.4.9,6.3.7,2.5,1.4,2.3,2.4,8v2.4l-.6,2.7,1.1,5.2.1,3.2Zm12.6-52.25,4.9-2.35.9-.15-.9.15Zm73.1,137.85h0l2,2.5h0Zm23.9-83.4-8.3,17.4-.6,5.8.4,3.1-.8,2.7-5.6,4.6-21.5,25.9-5.4,4.9-4.6,5.4-.7,2.6,3.6,9h0l-3.6-9,.7-2.6,4.6-5.4,5.4-4.9,21.5-25.9,5.6-4.6.8-2.7-.4-3.1.6-5.8,8.3-17.4-.5-5.9h0Zm-11.7-23.5-.4,2.9v3h0v-3l.4-2.9-.8-2.6h0Zm-2.4-5.1h0l-2.8-6.1h0ZM943.2,316.3h0l1.5-1.06ZM1065.4,203l-3.7,5.1-9.1,8.7,1.7,12.8-3.9,28.6,2,8.5-.4,3.8-5,9.9-.5,3.4,2.2.7,2.8-.4,3.4,1.1,2.4,2.8,1.5,3,.4,3.1-8.4,10.5-3.4,6.2-2.3,2.4-1.8,2.7-.4,7.2.4,7.2-2.5,5.8-5.2,3.9-19.6,6.9-4.7,5.2-1.2,6.8.6,7.1-.9,3-2,2.5-2.5,2.1h0l2.5-2.1,2-2.5.9-3-.6-7.1,1.2-6.8,4.7-5.2,19.6-6.9,5.2-3.9,2.5-5.8-.4-7.2.4-7.2,1.8-2.7,2.3-2.4,3.4-6.2,8.4-10.5-.4-3.1-1.5-3-2.4-2.8-3.4-1.1-2.8.4-2.2-.7.5-3.4,5-9.9.4-3.8-2-8.5,3.9-28.6-1.7-12.8,9.1-8.7,3.7-5.1,2.1-5.2-.7-5.3-4.5-3.3-3.7-4.1-1.5-5.5,2-16.5h0l-2,16.5,1.5,5.5,3.7,4.1,4.5,3.3.7,5.3Z"/></clipPath></defs><g class="cls-2"><path class="cls-3" d="M121.86,82.86H1378.14V917.14H121.86Z"/><path class="cls-4" d="M540.62,82.86H959.38V917.14H540.62Z"/></g><polygon class="cls-5" points="654.6 887.9 651.6 888.7 650.1 888.9 648.6 888.5 645.7 887 644.7 886.6 640.7 887.9 639.8 888.3 639 889.8 639.5 890.9 640.8 891.5 646.9 891.9 648.4 891.8 652.5 890.3 653.8 890.1 657 890.2 658.4 889.9 659.2 888.9 659.6 887.8 658.8 887.5 654.6 887.9"/><polygon class="cls-5" points="633.8 887.2 632.5 886.7 632.5 886.7 631.3 884.4 630.1 883.7 629.4 885.9 627.8 887.8 626 890.7 623.3 893.5 622.5 895.1 623.3 896.1 626.1 896.3 633.5 894.8 635.8 893.6 636.6 892.8 637 891.5 637.2 889.1 637.7 888.1 638.7 887.2 637.6 886.8 633.8 887.2"/></svg>